<svg width="36" height="36" viewBox="0 0 36 36" fill="none" xmlns="http://www.w3.org/2000/svg">
<path d="M23.7801 3C28.6001 3 31.4869 5.92715 31.5 10.8146V25.1854C31.5 30.0728 28.6263 33 23.7932 33H19.5087C18.9592 32.9386 18.5434 32.4678 18.5434 31.9073C18.5434 31.3468 18.9592 30.876 19.5087 30.8146H23.7801C27.4637 30.8146 29.3186 28.9205 29.3186 25.1854V10.8146C29.3186 7.07947 27.4637 5.18543 23.7801 5.18543H12.2068C8.52322 5.18543 6.6553 7.07947 6.6553 10.8146V25.1854C6.6553 28.9205 8.52322 30.8146 12.2068 30.8146C12.7563 30.876 13.1722 31.3468 13.1722 31.9073C13.1722 32.4678 12.7563 32.9386 12.2068 33C7.38679 33 4.5 30.0728 4.5 25.1854V10.8146C4.5 5.91391 7.38679 3 12.2068 3H23.7801ZM23.3882 23.2649C23.9798 23.2649 24.4594 23.7512 24.4594 24.351C24.4594 24.9508 23.9798 25.4371 23.3882 25.4371H12.5726C11.981 25.4371 11.5015 24.9508 11.5015 24.351C11.5015 23.7512 11.981 23.2649 12.5726 23.2649H23.3882ZM23.3882 16.9073C23.8016 16.8611 24.2046 17.0587 24.4255 17.4159C24.6465 17.7731 24.6465 18.2269 24.4255 18.5841C24.2046 18.9413 23.8016 19.1389 23.3882 19.0927H12.5726C12.0231 19.0313 11.6072 18.5605 11.6072 18C11.6072 17.4395 12.0231 16.9687 12.5726 16.9073H23.3882ZM16.7003 10.5629C17.2498 10.6243 17.6656 11.0951 17.6656 11.6556C17.6656 12.2161 17.2498 12.6869 16.7003 12.7483H12.5856C12.0362 12.6869 11.6203 12.2161 11.6203 11.6556C11.6203 11.0951 12.0362 10.6243 12.5856 10.5629H16.7003Z" fill="#446DF6"/>
</svg>
